<?xml version="1.0" encoding="UTF-8"?>
<svg version="1.1" viewBox="0 0 2048 819" width="1280" height="1280" xmlns="http://www.w3.org/2000/svg">
<path transform="translate(994,122)" d="m0 0h32l22 4 16 6 17 9 12 9 10 9 10 11 9 14 8 17 5 17 2 22 1 35-2 2h-74l-1-5v-21l-4-18-5-12-7-10-8-7-13-5-5-1h-21l-10 3-11 6-8 10-6 13-4 20-1 13v15l2 16 4 12 6 10 12 9 19 9 67 27 17 9 14 10 15 15 9 15 6 16 5 23 2 19 1 21v19l-2 30-5 27-7 21-8 16-9 13-8 9-14 11-19 10-20 6-19 3-12 1h-17l-22-3-16-5-16-7-11-7-10-8-9-8-9-11-9-13-8-17-5-15-3-18-1-22v-17l2-2 73 1 1 1 1 31 4 15 6 11 8 9 13 6 14 3h18l10-2 10-4 8-6 6-7 4-8 3-13 1-8 1-21v-17l-1-22-3-16-4-9-5-7-10-7-24-11-41-17-21-9-18-10-13-10-7-6-9-11-8-14-6-15-5-21-3-22-1-13v-19l3-24 5-20 6-16 10-19 8-11 10-11 8-7 15-10 18-8 15-4z" fill="#494243"/>
<path transform="translate(1907,273)" d="m0 0h28l15 2 12 3 21 10 14 10 9 9 9 12 9 17 6 18 3 17 1 21v99l-2 1h-147l1 55 3 14 6 9 10 6 12 3h12l10-3 9-6 8-16 2-11 1-1 75 1-1 17-4 20-6 15-7 13-11 13-10 10-15 10-16 7-19 5-19 2h-13l-18-2-16-4-19-9-13-10-13-13-9-14-7-14-5-19-2-16-1-14-1-37v-77l1-42 2-20 4-18 6-16 8-14 11-13 13-11 17-10 17-6zm6 75-11 4-9 8-5 10-2 9-1 10v44l14 1h47l12-1 1-3v-42l-2-15-6-12-8-8-8-4-4-1z" fill="#494243"/>
<path transform="translate(556,273)" d="m0 0h28l15 2 12 3 15 7 12 7 10 8 10 10 7 10 8 15 6 17 3 15 1 8v116l-1 1h-148l1 53 2 12 6 12 9 6 8 3 6 1h12l11-3 8-6 6-10 2-5 3-12 1-1 74 1v12l-3 19-5 16-9 17-9 11-5 6-11 9-10 7-15 7-17 5-12 2-12 1h-13l-18-2-15-4-16-7-12-8-12-11-8-9-9-15-6-14-4-16-2-17-1-19v-147l2-21 4-18 6-16 8-14 7-9 4-5 11-9 14-9 16-7 17-4zm7 75-12 4-7 6-5 7-3 9-1 7-1 19v33l11 1h55l8-1v-51l-3-13-6-10-7-6-8-4-4-1z" fill="#F43D58"/>
<path transform="translate(1429,273)" d="m0 0h27l17 2 15 4 16 8 12 8 13 12 10 13 9 19 5 17 2 16 1 18v143l-2 32-4 18-5 13-9 16-11 13-13 11-16 9-18 6-18 3-12 1h-13l-18-2-15-4-16-7-13-9-12-11-8-9-10-17-5-15-4-20-2-19v-153l2-24 3-16 6-16 8-15 8-10 11-11 13-9 16-8 16-5zm6 75-9 3-10 9-6 10-2 7-1 20v144l2 14 4 9 7 8 8 5 11 3h13l12-5 8-6 5-8 3-11 1-7v-164l-3-10-7-11-9-7-9-3z" fill="#494243"/>
<path transform="translate(38,126)" d="m0 0h222l18 1v36l-1 32-1 1h-85v453l-1 1-71 1-3-2-1-68v-381l-1-3h-79l-7-2v-67l1-1z" fill="#F33D57"/>
<path transform="translate(739,164)" d="m0 0h74l1 1v105l-1 7h21l26 1v56l-2 1-43 1v220l3 10 4 6 9 5 8 2 18 1 3 3v66l-3 2h-27l-18-1-18-4-16-7-13-10-9-10-8-14-5-12-3-12-1-7-1-17v-222l-12 1h-24l-1-1v-58h36l1-110z" fill="#F43D57"/>
<path transform="translate(1189,164)" d="m0 0h74l1 1v45l-1 67h46l1 1v56l-7 2-39-1v201l1 22 4 11 6 5 10 4 4 1 19 1 2 4v64l-4 3h-24l-20-1-18-4-12-5-10-6-10-9-7-8-9-16-5-16-2-10-1-11-1-229h-35l-1-1v-58l3-1 34 1v-102z" fill="#494243"/>
<path transform="translate(1778,272)" d="m0 0h6l2 2 1 66-1 10-3 1-10-2h-21l-17 4-12 6-15 12-10 14-7 16-3 17-1 56v175l-1 1-72 1-2-2-1-24v-347l1-1h72l3 2 1 36 8-6 14-11 19-12 15-7 14-4z" fill="#4A4243"/>
<path transform="translate(430,272)" d="m0 0 5 1 1 52v22l-1 3-13-1h-21l-17 4-15 8-12 11-8 10-7 14-4 16-1 14-1 223-1 1-70 1-3-1-1-2-1-122v-72l1-176 2-1h70l3 1 1 37 11-8 10-8 15-10 15-8 15-5z" fill="#F53D58"/>
</svg>
